# xmcd
#
# Track frame offsets:
#	150
#	16720
#	38540
#	56065
#
# Disc length: 1000 seconds
#
# Revision: 1
# Processed by: cddbd v1.5.2PL0 Copyright (c) Steve Scherf et al.
# Submitted via: dBpowerAMP V4.0
#
DISCID=2303e604
DTITLE=Stacie Orrico - I'm Not Missing You [CDS)
DYEAR=2006
DGENRE=R&B
TTITLE0=I'm Not Missing You (Radio Edit)
TTITLE1=Tantrum
TTITLE2=Frustrated
TTITLE3=I'm Not Missing You (Full Phatt Undergraund Remix)
EXTD=
EXTT0=
EXTT1=
EXTT2=
EXTT3=
PLAYORDER=
